HIERARCHY
ROOT joint_Root
{
	OFFSET 0.0 0.0 0.0
	CHANNELS 6 Xposition Yposition Zposition Zrotation Xrotation Yrotation 
	JOINT Hips
	{
		OFFSET 4.5925 91.4895 -427.239
		CHANNELS 6 Xposition Yposition Zposition Zrotation Xrotation Yrotation 
		JOINT Spine
		{
			OFFSET 15.7357 0.0 0.0
			CHANNELS 6 Xposition Yposition Zposition Zrotation Xrotation Yrotation 
			JOINT Chest
			{
				OFFSET 8.98455 -0.406207 0.0
				CHANNELS 6 Xposition Yposition Zposition Zrotation Xrotation Yrotation 
				JOINT Neck
				{
					OFFSET 16.3773 0.0 0.0
					CHANNELS 6 Xposition Yposition Zposition Zrotation Xrotation Yrotation 
					JOINT Head
					{
						OFFSET 6.45672 0.0 0.0
						CHANNELS 6 Xposition Yposition Zposition Zrotation Xrotation Yrotation 
						End Site
						{
							OFFSET 0.0 0.0 0.0
						}
					}
				}
				JOINT Shoulder_L
				{
					OFFSET 12.9942 -0.242716 4.98039
					CHANNELS 6 Xposition Yposition Zposition Zrotation Xrotation Yrotation 
					JOINT UpperArm_L
					{
						OFFSET 5.34809 0.0 0.0
						CHANNELS 6 Xposition Yposition Zposition Zrotation Xrotation Yrotation 
						JOINT LowerArm_L
						{
							OFFSET 24.3286 1.87007e-05 0.0
							CHANNELS 6 Xposition Yposition Zposition Zrotation Xrotation Yrotation 
							JOINT Hand_L
							{
								OFFSET 22.2916 0.0 0.0
								CHANNELS 6 Xposition Yposition Zposition Zrotation Xrotation Yrotation 
								End Site
								{
									OFFSET 0.0 0.0 0.0
								}
							}
						}
					}
				}
				JOINT Shoulder_R
				{
					OFFSET 12.9945 -0.242716 -4.98039
					CHANNELS 6 Xposition Yposition Zposition Zrotation Xrotation Yrotation 
					JOINT UpperArm_R
					{
						OFFSET -5.34813 0.0 0.0
						CHANNELS 6 Xposition Yposition Zposition Zrotation Xrotation Yrotation 
						JOINT LowerArm_R
						{
							OFFSET -24.3289 0.000322201 0.0
							CHANNELS 6 Xposition Yposition Zposition Zrotation Xrotation Yrotation 
							JOINT Hand_R
							{
								OFFSET -22.2915 -0.000108084 0.0
								CHANNELS 6 Xposition Yposition Zposition Zrotation Xrotation Yrotation 
								End Site
								{
									OFFSET 0.0 0.0 0.0
								}
							}
						}
					}
				}
			}
		}
		JOINT UpperLeg_L
		{
			OFFSET -2.19248 -6.46944 0.0
			CHANNELS 6 Xposition Yposition Zposition Zrotation Xrotation Yrotation 
			JOINT LowerLeg_L
			{
				OFFSET 39.0811 0.0 -1.23785e-05
				CHANNELS 6 Xposition Yposition Zposition Zrotation Xrotation Yrotation 
				JOINT Foot_L
				{
					OFFSET 40.9854 0.0 -1.26872e-05
					CHANNELS 6 Xposition Yposition Zposition Zrotation Xrotation Yrotation 
					JOINT Toes_L
					{
						OFFSET 11.7543 0.0 0.0
						CHANNELS 6 Xposition Yposition Zposition Zrotation Xrotation Yrotation 
						End Site
						{
							OFFSET 0.0 0.0 0.0
						}
					}
				}
			}
		}
		JOINT UpperLeg_R
		{
			OFFSET -2.19251 6.46944 0.0
			CHANNELS 6 Xposition Yposition Zposition Zrotation Xrotation Yrotation 
			JOINT LowerLeg_R
			{
				OFFSET -39.0811 -0.00228153 -0.0401928
				CHANNELS 6 Xposition Yposition Zposition Zrotation Xrotation Yrotation 
				JOINT Foot_R
				{
					OFFSET -40.9854 0.0 0.0
					CHANNELS 6 Xposition Yposition Zposition Zrotation Xrotation Yrotation 
					JOINT Toes_R
					{
						OFFSET -11.7543 0.0 0.0
						CHANNELS 6 Xposition Yposition Zposition Zrotation Xrotation Yrotation 
						End Site
						{
							OFFSET 0.0 0.0 0.0
						}
					}
				}
			}
		}
	}
}
MOTION
Frames:	7
Frame Time:	0.0333333
0.000000 0.000000 0.000000 0.000000 0.000000 -0.000000 1.077030 81.621600 -0.572484 90.822700 -5.610480 12.131900 15.735700 0.000005 -0.000001 92.996500 80.135200 -93.277900 8.984550 -0.406207 -0.000000 11.940600 1.012210 -0.668638 16.377300 -0.000001 -0.000001 -1.071830 -3.096400 1.285450 6.456720 -0.000001 -0.000000 -2.078180 -4.405470 4.610190 12.994200 -0.242716 4.980390 -91.462300 4.932550 -73.464500 5.348090 -0.000007 -0.000001 -66.863600 18.909800 -11.368500 24.328600 0.000019 0.000005 10.438500 13.593600 -38.092200 22.291600 -0.000001 0.000005 10.278000 5.371280 -2.031790 12.994500 -0.242716 -4.980390 88.439100 9.187830 -80.315000 -5.348130 -0.000001 -0.000004 -59.289800 33.653100 -8.285030 -24.328900 0.000322 -0.000009 1.349210 2.131720 -32.365400 -22.291500 -0.000108 -0.000004 18.868600 5.465890 -5.217500 -2.192480 -6.469440 -0.000000 -175.657000 -15.629900 -13.387600 39.081100 -0.000007 -0.000012 -0.507216 0.257171 63.115000 40.985400 -0.000006 -0.000013 2.907090 4.668470 -87.365500 11.754300 -0.000000 0.000003 -0.000682 -0.005152 -16.763400 -2.192510 6.469440 -0.000001 172.058000 13.740900 165.474000 -39.081100 -0.002282 -0.040193 0.082810 -0.038412 64.250900 -40.985400 0.000008 0.000006 6.982690 8.700510 -87.074100 -11.754300 -0.000006 -0.000006 -0.683878 -0.840562 -17.086700
0.000000 0.000000 0.000000 0.000000 0.000000 -0.000000 1.528960 82.656500 0.176304 91.534000 -7.368890 12.748800 15.735700 0.000005 -0.000001 91.397500 80.440200 -91.084400 8.984550 -0.406207 -0.000000 11.347000 0.472377 0.578949 16.377300 -0.000001 -0.000001 0.278247 -2.813520 1.176480 6.456720 -0.000001 -0.000000 -1.037130 -3.751610 3.294800 12.994200 -0.242716 4.980390 -91.354500 4.297420 -72.487100 5.348090 -0.000007 -0.000001 -63.917100 16.609700 -12.659700 24.328600 0.000019 0.000005 12.633000 12.990800 -44.912400 22.291600 -0.000001 0.000005 8.405440 5.400670 -2.958350 12.994500 -0.242716 -4.980390 88.351900 9.119150 -79.710100 -5.348130 -0.000001 -0.000004 -60.776700 30.728800 -7.734400 -24.328900 0.000322 -0.000009 1.496480 2.627130 -29.697300 -22.291500 -0.000108 -0.000004 19.297400 5.443030 -4.393150 -2.192480 -6.469440 -0.000000 -176.449000 -16.344700 -10.374800 39.081100 -0.000007 -0.000012 -0.485230 0.283606 59.695700 40.985400 -0.000006 -0.000013 2.465900 3.595620 -86.405600 11.754300 -0.000000 0.000003 -0.000693 -0.005223 -16.765800 -2.192510 6.469440 -0.000001 170.968000 12.345600 167.623000 -39.081100 -0.002282 -0.040193 0.064697 -0.033575 61.370100 -40.985400 0.000008 0.000006 6.778020 9.680660 -86.113800 -11.754300 -0.000006 -0.000006 -0.628683 -0.772619 -17.034200
0.000000 0.000000 0.000000 0.000000 0.000000 -0.000000 1.807850 84.486700 0.864470 91.959600 -8.209540 12.855400 15.735700 0.000005 -0.000001 90.007500 81.121700 -88.881600 8.984550 -0.406207 -0.000000 9.991260 0.024134 2.248040 16.377300 -0.000001 -0.000001 2.933690 -2.960560 0.835119 6.456720 -0.000001 -0.000000 0.052892 -3.697260 1.395770 12.994200 -0.242716 4.980390 -91.002100 2.988850 -71.454100 5.348090 -0.000007 -0.000001 -56.254500 12.929600 -19.913800 24.328600 0.000019 0.000005 16.199000 12.626100 -53.042700 22.291600 -0.000001 0.000005 8.944050 5.425800 -3.796030 12.994500 -0.242716 -4.980390 88.246200 8.734780 -78.600300 -5.348130 -0.000001 -0.000004 -62.472200 27.823900 -5.394130 -24.328900 0.000322 -0.000009 0.584640 1.096610 -28.104900 -22.291500 -0.000108 -0.000004 20.061800 5.435470 -4.127820 -2.192480 -6.469440 -0.000000 -177.131000 -16.358200 -6.885210 39.081100 -0.000007 -0.000012 -0.454571 0.332918 53.782800 40.985400 -0.000006 -0.000013 2.031490 2.857570 -83.986200 11.754300 -0.000000 0.000003 -0.000642 -0.004900 -16.754800 -2.192510 6.469440 -0.000001 170.297000 11.868100 170.615000 -39.081100 -0.002282 -0.040193 0.049927 -0.031529 55.977900 -40.985400 0.000008 0.000006 6.328790 10.572800 -83.723200 -11.754300 -0.000006 -0.000006 -0.570218 -0.700300 -17.113700
0.000000 0.000000 0.000000 0.000000 0.000000 -0.000000 1.846230 86.526300 1.387610 91.980000 -8.227300 12.334900 15.735700 0.000005 -0.000001 88.629600 82.081800 -86.540800 8.984550 -0.406207 -0.000000 8.076180 -0.371367 4.199770 16.377300 -0.000001 -0.000001 5.995800 -3.559060 0.533299 6.456720 -0.000001 -0.000000 1.474480 -3.645010 -0.488278 12.994200 -0.242716 4.980390 -90.454800 1.346580 -71.336700 5.348090 -0.000007 -0.000001 -48.544600 2.362320 -30.608900 24.328600 0.000019 0.000005 12.649900 7.909340 -58.491100 22.291600 -0.000001 0.000005 11.615400 5.408740 -3.222180 12.994500 -0.242716 -4.980390 88.154800 8.026960 -77.008800 -5.348130 -0.000001 -0.000004 -63.004900 26.132900 -2.753930 -24.328900 0.000322 -0.000009 -0.182515 -0.352493 -27.238100 -22.291500 -0.000108 -0.000004 18.738000 5.435830 -4.140260 -2.192480 -6.469440 -0.000000 -177.339000 -16.271600 -3.618590 39.081100 -0.000007 -0.000012 -0.387445 0.364595 46.741200 40.985400 -0.000006 -0.000013 1.810880 2.941600 -80.764600 11.754300 -0.000000 0.000003 -0.000518 -0.004098 -16.727200 -2.192510 6.469440 -0.000001 170.161000 12.453900 173.824000 -39.081100 -0.002282 -0.040193 0.038770 -0.030616 49.240500 -40.985400 0.000008 0.000006 6.034030 11.400900 -80.759900 -11.754300 -0.000006 -0.000006 -0.329325 -0.407918 -17.254500
0.000000 0.000000 0.000000 0.000000 0.000000 -0.000000 1.720510 88.304300 1.716070 91.738600 -7.901500 11.296800 15.735700 0.000005 -0.000001 85.242200 83.076200 -82.318100 8.984550 -0.406207 -0.000000 6.072030 -1.188500 5.904760 16.377300 -0.000001 -0.000001 8.557140 -3.912190 0.674016 6.456720 -0.000001 -0.000000 2.508870 -3.322960 -1.909100 12.994200 -0.242716 4.980390 -89.677100 -1.015630 -72.354400 5.348090 -0.000007 -0.000001 -43.677100 -14.266800 -42.208100 24.328600 0.000019 0.000005 6.921450 3.968020 -60.315400 22.291600 -0.000001 0.000005 16.198400 5.410110 -3.267940 12.994500 -0.242716 -4.980390 88.079600 7.456670 -75.513600 -5.348130 -0.000001 -0.000004 -62.162900 26.120800 -0.844551 -24.328900 0.000322 -0.000009 0.039442 0.080578 -26.695400 -22.291500 -0.000108 -0.000004 16.609400 5.440760 -4.313000 -2.192480 -6.469440 -0.000000 -177.078000 -16.748600 -1.030910 39.081100 -0.000007 -0.000012 -0.305980 0.366046 39.893000 40.985400 -0.000006 -0.000013 1.804660 3.922720 -77.477800 11.754300 -0.000000 0.000003 -0.000371 -0.003107 -16.692400 -2.192510 6.469440 -0.000001 170.301000 14.077900 176.494000 -39.081100 -0.002282 -0.040193 0.029748 -0.028824 42.568900 -40.985400 0.000008 0.000006 5.865550 12.695400 -77.697300 -11.754300 -0.000006 -0.000006 -0.323999 -0.401460 -17.249000
0.000000 0.000000 0.000000 0.000000 0.000000 -0.000000 1.527320 89.605000 1.945280 91.383600 -7.915040 10.213800 15.735700 0.000005 -0.000001 79.450900 83.803700 -75.881000 8.984550 -0.406207 -0.000000 4.504040 -2.366260 7.225660 16.377300 -0.000001 -0.000001 10.124500 -3.891710 1.196900 6.456720 -0.000001 -0.000000 2.682270 -2.807290 -2.452270 12.994200 -0.242716 4.980390 -88.674700 -4.643110 -74.048800 5.348090 -0.000007 -0.000001 -44.781600 -33.925700 -54.653400 24.328600 0.000019 0.000005 2.889340 1.752170 -58.783700 22.291600 -0.000001 0.000005 19.272200 5.432910 -4.036740 12.994500 -0.242716 -4.980390 87.956800 7.473100 -74.660700 -5.348130 -0.000001 -0.000004 -59.909200 26.784000 0.714143 -24.328900 0.000322 -0.000009 0.807278 1.571800 -27.219000 -22.291500 -0.000108 -0.000004 15.710800 5.443270 -4.400620 -2.192480 -6.469440 -0.000000 -176.524000 -17.800200 0.990456 39.081100 -0.000007 -0.000012 -0.180372 0.265365 34.204800 40.985400 -0.000006 -0.000013 2.140940 5.253610 -74.810800 11.754300 -0.000000 0.000003 -0.200126 -0.266864 -16.480600 -2.192510 6.469440 -0.000001 170.600000 15.900300 178.530000 -39.081100 -0.002282 -0.040193 0.022868 -0.026041 36.941500 -40.985400 0.000008 0.000006 6.076060 14.296600 -75.211900 -11.754300 -0.000006 -0.000006 -0.276114 -0.343988 -17.255400
0.000000 0.000000 0.000000 0.000000 0.000000 -0.000000 1.512340 90.416700 1.912680 91.050000 -9.099190 8.584340 15.735700 0.000005 -0.000001 73.253100 84.239000 -69.208600 8.984550 -0.406207 -0.000000 3.407940 -3.469570 8.185740 16.377300 -0.000001 -0.000001 10.514300 -3.039750 1.260720 6.456720 -0.000001 -0.000000 2.240770 -2.209720 -1.520650 12.994200 -0.242716 4.980390 -87.116700 -10.212600 -74.142900 5.348090 -0.000007 -0.000001 -55.808100 -50.547300 -73.671500 24.328600 0.000019 0.000005 -1.444930 -1.160090 -51.317000 22.291600 -0.000001 0.000005 21.971200 5.489880 -6.127970 12.994500 -0.242716 -4.980390 87.884700 7.911880 -74.979500 -5.348130 -0.000001 -0.000004 -57.074500 26.324700 1.712180 -24.328900 0.000322 -0.000009 1.267790 2.319930 -28.686000 -22.291500 -0.000108 -0.000004 16.801900 5.441830 -4.349580 -2.192480 -6.469440 -0.000000 -176.353000 -19.051900 1.452610 39.081100 -0.000007 -0.000012 -0.153981 0.264565 30.200400 40.985400 -0.000006 -0.000013 1.721850 5.800800 -72.795000 11.754300 -0.000000 0.000003 -0.054496 -0.073010 -16.594200 -2.192510 6.469440 -0.000001 170.939000 17.776600 178.775000 -39.081100 -0.002282 -0.040193 0.017503 -0.021916 32.952800 -40.985400 0.000008 0.000006 6.360900 17.085800 -73.433800 -11.754300 -0.000006 -0.000006 -0.166646 -0.211660 -17.162400
